<svg width="100" height="95" viewBox="0 0 100 95" fill="none" xmlns="http://www.w3.org/2000/svg">
<circle cx="38.5" cy="7.5" r="7.5" fill="#FF8BA7"/>
<circle cx="55.5" cy="7.5" r="7.5" fill="#FF8BA7"/>
<path d="M21 27C21 21.4772 25.4772 17 31 17H66C71.5228 17 76 21.4772 76 27V35H21V27Z" fill="#FF8BA7"/>
<path d="M13 49C13 43.4772 17.4772 39 23 39H74C79.5229 39 84 43.4772 84 49V69H13V49Z" fill="#FF8BA7"/>
<rect x="7" y="73" width="82" height="4" rx="2" fill="#FF8BA7"/>
<rect x="30" y="89" width="38" height="6" rx="3" fill="#FF8BA7"/>
<path d="M43 77H54C54 77 54 84.5 54 86C54 87.5 57 89 57 89H40C40 89 43 87.5 43 86C43 84.5 43 77 43 77Z" fill="#FF8BA7"/>
</svg>
