<svg width="158" height="103" viewBox="0 0 158 103" fill="none" xmlns="http://www.w3.org/2000/svg">
<path d="M150.38 68.4441V75.3108C150.38 75.3108 150.028 71.3853 148.32 69.5885C146.225 67.3847 143.571 66.1694 140.538 66.3841C137.617 66.5908 135.479 67.6769 134.129 70.2752C133.017 72.4161 133.312 74.1089 133.9 76.4489C135.393 82.3962 142.369 81.2556 147.404 84.46C149.537 85.8174 151.44 88.58 151.753 89.2667C152.592 91.1041 152.82 93.884 152.669 94.5311C152.032 97.2501 150.473 98.5665 148.091 100.024C145.816 101.417 141.453 101.633 141.453 101.633C141.453 101.633 138.475 101.609 136.647 101.175C133.842 100.51 130.238 97.513 130.238 97.513V90.8752C130.238 90.8752 131.372 95.5132 133.442 97.513C135.843 99.8315 138.116 100.507 141.453 100.489C144.479 100.471 146.882 100.322 148.778 97.9645C149.912 96.554 150.327 95.4247 150.38 93.6156C150.451 91.1752 148.854 88.9838 148.091 87.8933C144.887 83.3156 137.562 83.5445 135.044 81.9422C132.795 80.5106 131.407 79.2477 130.696 76.6778C130.097 74.5173 130.313 73.0341 131.153 70.9556C132.836 66.7923 136.155 65.2257 140.996 65.0107C144.978 64.8339 150.38 68.4441 150.38 68.4441Z" fill="#745D56" stroke="#745D56"/>
<path fill-rule="evenodd" clip-rule="evenodd" d="M109.867 100.717C119.727 100.717 127.72 92.8267 127.72 83.093C127.72 73.3592 119.727 65.4685 109.867 65.4685C100.007 65.4685 92.0133 73.3592 92.0133 83.093C92.0133 92.8267 100.007 100.717 109.867 100.717ZM109.592 99.6791C117.177 99.6791 123.325 91.4756 123.325 82.6675C123.325 73.8595 117.177 66.7191 109.592 66.7191C102.007 66.7191 95.8587 73.8595 95.8587 82.6675C95.8587 91.4756 102.007 99.6791 109.592 99.6791Z" fill="#745D56"/>
<path d="M79.1956 55.62C79.1956 55.62 82.9513 55.6061 84.9178 54.9334C86.0618 54.542 87.6644 52.6445 87.6644 52.6445L87.8933 52.6445V56.7645V79.6534C87.8933 79.6534 87.8933 96.5911 87.8933 98.1934C87.8933 99.7956 91.7844 100.711 91.7844 100.711V101.169H79.8822L79.8822 100.711C79.8822 100.711 83.7733 99.7956 83.7733 98.1934C83.7733 96.5911 83.7733 59.74 83.7733 57.9089C83.7733 56.4363 79.1956 55.8489 79.1956 55.8489L79.1956 55.62Z" fill="#745D56"/>
<circle cx="56.9933" cy="60.6556" r="3.43333" fill="#FF8BA7"/>
<circle cx="64.7756" cy="60.6556" r="3.43333" fill="#FF8BA7"/>
<path d="M48.9822 73.2445C48.9822 68.6936 52.6714 65.0045 57.2222 65.0045H65.92C70.4708 65.0045 74.16 68.6936 74.16 73.2445H48.9822Z" fill="#FF8BA7"/>
<path d="M45.32 85.0756C45.32 79.5527 49.7972 75.0756 55.32 75.0756H67.8222C73.3451 75.0756 77.8222 79.5527 77.8222 85.0756V88.8089H45.32V85.0756Z" fill="#FF8BA7"/>
<rect x="42.5733" y="90.64" width="37.5378" height="1.83111" rx="0.915556" fill="#FF8BA7"/>
<rect x="53.1022" y="97.9645" width="17.3956" height="2.74667" rx="1.37333" fill="#FF8BA7"/>
<path d="M59.0533 92.4711H64.0889C64.0889 92.4711 64.0889 95.9045 64.0889 96.5911C64.0889 97.2778 65.4622 97.9645 65.4622 97.9645H57.68C57.68 97.9645 59.0533 97.2778 59.0533 96.5911C59.0533 95.9045 59.0533 92.4711 59.0533 92.4711Z" fill="#FF8BA7"/>
<path d="M11.6733 101.398C11.6733 101.398 11.2155 61.1133 11.2155 58.5955C11.2155 57.1018 8.92666 56.3067 5.49333 55.3911C2.06 54.4755 1.14444 51.9578 1.14444 51.9578C1.14444 51.9578 3.21066 53.3342 5.03555 54.2467C5.95111 54.7044 9.75377 55.4921 12.1311 54.7044C13.8492 54.1352 16.0222 52.1867 16.0222 52.1867C16.0222 52.1867 15.8957 61.9457 15.9523 71.8711C15.9587 72.9917 15.5668 74.0571 15.1777 75.1109L14.42 78.28C14.4986 83.1013 14.1522 88.0955 14.42 90.64C15.0304 96.4386 18.2858 99.287 20.3882 100.542C21.4281 100.993 22.2022 101.398 22.2022 101.398C22.2022 101.398 21.4393 101.169 20.3882 100.542C19.0041 99.941 17.1492 99.258 16.0222 99.3378C14.1477 99.4705 11.6733 101.398 11.6733 101.398Z" fill="#745D56"/>
<path d="M6.86667 50.1267C6.86667 52.0229 5.32951 53.56 3.43333 53.56C3.06977 53.56 3.30442 54.1225 2.97556 54.0178C1.58922 53.5764 0 51.6593 0 50.1267C0 48.2305 1.53716 46.6934 3.43333 46.6934C5.32951 46.6934 6.86667 48.2305 6.86667 50.1267Z" fill="#745D56"/>
<path fill-rule="evenodd" clip-rule="evenodd" d="M27.2378 103C35.4545 103 42.1155 94.4944 42.1155 84.0022C42.1155 73.5101 35.4545 65.0045 27.2378 65.0045C19.021 65.0045 12.36 73.5101 12.36 84.0022C12.36 94.4944 19.021 103 27.2378 103ZM26.3222 101.856C32.2636 101.856 37.08 93.0253 37.08 83.5444C37.08 74.0636 32.2636 66.3778 26.3222 66.3778C20.3808 66.3778 15.5644 74.0636 15.5644 83.5444C15.5644 93.0253 20.3808 101.856 26.3222 101.856Z" fill="#745D56"/>
<path d="M139.82 24.6726C140.005 22.7855 138.626 21.1053 136.738 20.9198C136.376 20.8842 136.665 20.3474 136.327 20.4194C134.904 20.7231 133.134 22.4755 132.984 24.0007C132.799 25.8878 134.179 27.568 136.066 27.7535C137.954 27.9391 139.634 26.5597 139.82 24.6726Z" fill="#745D56"/>
<path fill-rule="evenodd" clip-rule="evenodd" d="M140.767 51.9118C146.202 51.9118 151.067 47.6077 151.067 42.2984L151.067 41.3829H150.838H150.611C150.611 41.3829 150.609 41.6692 150.609 41.8406C150.609 45.7318 146.312 50.0806 142.578 50.0806C138.406 50.0806 135.296 46.525 135.025 42.2984C134.769 38.3151 136.876 34.7451 141.224 33.3718C144.522 32.3304 144.926 32.1013 145.926 31.5353C146.244 31.3548 146.623 31.1401 147.176 30.854C148.673 30.0782 151.067 28.1073 151.067 28.1073L151.067 26.9629C151.067 26.9629 147.176 30.854 141.224 31.9984C135.273 33.1429 130.924 36.9891 130.924 42.2984C130.924 47.6077 135.331 51.9118 140.767 51.9118Z" fill="#745D56"/>
<path d="M150.609 21.6984C150.38 19.6384 146.489 17.3495 144.2 17.3495C142.113 17.3495 140.309 17.5083 138.936 18.2651C138.153 18.6965 137.377 19.1273 136.876 19.8673C136.216 20.8407 136.189 22.8429 136.189 22.8429L132.984 24.674C132.984 24.674 132.931 23.462 133.213 22.614C133.671 21.2407 134.298 19.8817 135.731 18.7229C137.348 17.4155 138.968 16.8919 140.996 16.434C143.351 15.9021 145.057 15.8681 147.404 16.434C149.39 16.9125 150.859 17.4299 152.44 18.7229C153.521 19.6068 154.271 20.554 154.271 21.6984C154.271 22.8429 154.271 35.2029 154.271 35.2029C154.271 35.2029 154.271 47.5875 154.271 49.1651C154.271 50.7427 157.933 50.5455 157.933 50.5455V50.9962H150.609C150.609 50.9962 150.838 23.7584 150.609 21.6984Z" fill="#745D56"/>
<path d="M79.6533 18.5573C79.6533 18.5573 83.4091 18.5475 85.3756 18.0779C86.5195 17.8047 88.1222 16.48 88.1222 16.48L88.3511 16.48V19.3562V35.3352C88.3511 35.3352 88.3511 47.1597 88.3511 48.2783C88.3511 49.3968 92.3017 50.036 92.3017 50.036V50.3555H80.34L80.34 50.036C80.34 50.036 84.2311 49.3968 84.2311 48.2783C84.2311 47.1597 84.2311 21.4335 84.2311 20.1552C84.2311 19.1271 79.6533 18.717 79.6533 18.717L79.6533 18.5573Z" fill="#745D56"/>
<path d="M88.1222 23.5755C88.1222 23.5755 91.4047 18.4804 94.76 17.1667C97.4287 16.1217 99.6544 15.8063 102.084 16.7089C103.945 17.3999 104.993 18.1122 106.204 19.6844C107.43 21.2757 108.036 23.8044 108.036 24.4911C108.036 25.1778 108.036 35.793 108.036 35.793C108.036 35.793 108.036 47.6175 108.036 48.7361C108.036 49.8546 111.986 50.4937 111.986 50.4937V50.8133H100.024V50.4937C100.024 50.4937 103.916 49.8546 103.916 48.7361C103.916 47.6175 103.916 27.0089 103.916 23.5755C103.916 20.1422 99.4216 17.49 95.4467 17.8533C91.3548 18.2273 88.1222 26.0933 88.1222 25.4067C88.1222 24.72 88.1222 23.5755 88.1222 23.5755Z" fill="#745D56"/>
<path d="M106.662 23.8764C106.662 23.8764 109.945 18.7813 113.3 17.4675C115.969 16.4226 118.194 16.1072 120.624 17.0097C122.485 17.7008 123.533 18.4131 124.744 19.9853C125.97 21.5765 126.576 24.1053 126.576 24.7919C126.576 25.4786 126.576 36.0939 126.576 36.0939C126.576 36.0939 126.576 47.9184 126.576 49.0369C126.576 50.1554 130.526 50.7946 130.526 50.7946V51.1142H118.564V50.7946C118.564 50.7946 122.456 50.1554 122.456 49.0369C122.456 47.9184 122.456 27.3097 122.456 23.8764C122.456 20.443 117.962 17.7909 113.987 18.1542C109.895 18.5281 106.662 26.3942 106.662 25.7075C106.662 25.0208 106.662 23.8764 106.662 23.8764Z" fill="#745D56"/>
<circle cx="72.1" cy="8.92669" r="3.89111" fill="#745D56"/>
<path d="M66.8356 18.5573C66.8356 18.5573 70.5913 18.5475 72.5578 18.0779C73.7017 17.8047 75.3044 16.48 75.3044 16.48L75.5333 16.48V19.3562V35.3352C75.5333 35.3352 75.5333 47.1597 75.5333 48.2783C75.5333 49.3968 79.4839 50.036 79.4839 50.036V50.3555H67.5222L67.5222 50.036C67.5222 50.036 71.4133 49.3968 71.4133 48.2783C71.4133 47.1597 71.4133 21.4335 71.4133 20.1552C71.4133 19.1271 66.8356 18.717 66.8356 18.717L66.8356 18.5573Z" fill="#745D56"/>
<path d="M49.3553 9.96316C49.3553 9.96316 53.1613 9.95082 55.1542 9.35423C56.3135 9.00718 57.9376 7.32446 57.9376 7.32446L58.1696 7.32446V10.978V31.2757C58.1696 31.2757 58.1378 44.8622 58.1378 46.6934C58.1378 48.5245 60.3861 49.8419 62.1731 49.9496C63.2068 50.0119 63.8569 49.9182 64.7756 49.44C66.3811 48.6044 67.2933 45.5489 67.2933 45.5489H67.7511C67.7511 45.5489 67.5064 48.013 66.6067 49.2111C65.758 50.3413 64.9569 50.7814 63.6311 51.2711C61.7864 51.9526 60.4691 51.8685 58.5956 51.2711C57.6434 50.9675 56.9933 50.5845 56.3067 50.1267C55.62 49.6689 54.0178 48.7534 54.0178 45.7778C54.0178 42.8022 53.9944 13.6167 53.9944 11.9929C53.9944 10.6871 49.3553 10.1661 49.3553 10.1661L49.3553 9.96316Z" fill="#745D56"/>
<path d="M49.44 18.0822V17.3956H66.3778V18.0822H49.44Z" fill="#745D56"/>
<path d="M42.8022 1.14447L34.5622 12.36L36.6222 1.14447H42.8022Z" fill="#745D56"/>
<path fill-rule="evenodd" clip-rule="evenodd" d="M32.2733 51.9118C37.709 51.9118 42.5733 47.6077 42.5733 42.2984V26.9629C42.5733 26.9629 38.6822 30.854 32.7311 31.9984C26.78 33.1429 22.4311 36.9891 22.4311 42.2984C22.4311 47.6077 26.8376 51.9118 32.2733 51.9118ZM42.3444 41.3829H42.5733V28.1073C42.5733 28.1073 40.1798 30.0782 38.6822 30.854C38.1298 31.1401 37.7508 31.3548 37.4323 31.5353C36.4331 32.1013 36.0287 32.3304 32.7311 33.3718C28.3822 34.7451 26.2759 38.3151 26.5314 42.2984C26.8025 46.525 29.9132 50.0806 34.0847 50.0806C37.8183 50.0806 42.1155 45.7318 42.1155 41.8406C42.1155 41.6692 42.1181 41.3829 42.1181 41.3829H42.3444Z" fill="#745D56"/>
<path d="M42.1155 21.6984C41.8867 19.6384 37.9955 17.3495 35.7067 17.3495C33.6199 17.3495 31.8155 17.5083 30.4422 18.2651C29.6593 18.6965 28.8836 19.1273 28.3822 19.8673C27.7228 20.8407 27.6955 22.8429 27.6955 22.8429L24.4911 24.674C24.4911 24.674 24.4373 23.462 24.72 22.614C25.1778 21.2407 25.8049 19.8817 27.2378 18.7229C28.8543 17.4155 30.4742 16.8919 32.5022 16.434C34.858 15.9021 36.5632 15.8681 38.9111 16.434C40.8965 16.9125 42.3658 17.4299 43.9467 18.7229C45.0275 19.6068 45.7778 20.554 45.7778 21.6984C45.7778 22.8429 45.7778 35.2029 45.7778 35.2029C45.7778 35.2029 45.7778 47.5875 45.7778 49.1651C45.7778 50.7427 49.44 50.5455 49.44 50.5455V50.9962H42.1155C42.1155 50.9962 42.3444 23.7584 42.1155 21.6984Z" fill="#745D56"/>
<path d="M31.3265 24.6726C31.512 22.7855 30.1322 21.1053 28.2447 20.9198C27.8828 20.8842 28.1714 20.3474 27.8338 20.4194C26.4106 20.7231 24.6411 22.4755 24.4912 24.0007C24.3057 25.8878 25.6855 27.568 27.573 27.7535C29.4605 27.9391 31.141 26.5597 31.3265 24.6726Z" fill="#745D56"/>
<path d="M17.6245 1.37332C18.7684 0.981963 21.5975 0.396489 23.8045 1.37332C24.5756 1.71463 25.6356 2.51777 25.6356 2.51777L23.8045 2.05999C23.8045 2.05999 20.3244 1.23353 18.54 2.05999C16.8156 2.85866 15.5645 4.80666 15.5645 6.86666C15.5645 8.92666 15.5645 28.84 15.5645 28.84C15.5645 28.84 15.5645 45.7778 15.5645 47.38C15.5645 48.9822 20.1422 49.8978 20.1422 49.8978V50.3555H7.55334L7.55334 49.8978C7.55334 49.8978 11.4445 48.9822 11.4445 47.38C11.4445 45.7778 11.4445 10.7578 11.4445 7.09555C11.4445 3.43332 16.4805 1.76468 17.6245 1.37332Z" fill="#745D56"/>
<path d="M6.40889 18.0822V17.3956H23.3467V18.0822H6.40889Z" fill="#745D56"/>
<path d="M20.2392 6.2027C19.5251 4.44613 20.3702 2.44324 22.1267 1.72912C22.4635 1.5922 22.0343 1.1595 22.3784 1.13265C23.8289 1.01946 26.0231 2.19687 26.6003 3.61664C27.3144 5.3732 26.4694 7.37609 24.7128 8.09021C22.9562 8.80433 20.9533 7.95926 20.2392 6.2027Z" fill="#745D56"/>
</svg>
