<svg width="1920" height="897" viewBox="0 0 1920 897" fill="none" xmlns="http://www.w3.org/2000/svg">
<path d="M1921.87 817.006L1876.14 826.802C1830.41 836.232 1739.21 856.373 1647.21 860.951C1556.14 865.528 1464.54 856.373 1373.87 831.654C1281.87 806.935 1189.87 768.483 1099.21 777.913C1007.61 787.709 916.539 846.303 824.539 875.599C733.339 904.896 641.873 904.896 549.873 870.747C459.073 836.232 367.206 768.483 276.539 753.56C184.672 739.186 93.8724 777.638 47.2058 797.505L0 818.5V671V236C45.7333 236 184.539 236.053 276.539 236.053C367.606 236.053 530.206 236.053 620.873 236.053C712.873 236.053 733.873 236.053 824.539 236.053C916.139 236.053 1103.87 236.053 1195.87 236.053C1287.07 236.053 1342.37 236.053 1434.37 236.053C1525.17 236.053 1581.71 236.053 1672.37 236.053C1764.24 236.053 1875.21 236.053 1921.87 236.053V670.522V817.006Z" fill="#55423D"/>
<path d="M0 143.5C0 143.5 7 115.127 47.6058 82.9214C88.2117 50.7158 182.336 12.2906 276.539 6.88486C386.685 0.564345 459.206 47.9903 549.873 77.1897C641.873 106.389 733.873 151.81 824.539 140.671C916.139 129.1 1007.21 59.8863 1099.21 25.2797C1190.41 -9.327 1281.87 -9.32699 1373.87 31.0114C1464.67 71.7824 1556.54 151.81 1647.21 169.438C1739.07 186.417 1829.87 140.996 1876.54 117.528L1921.87 94.493V267.526H1876.14C1830.41 267.526 1739.21 267.526 1647.21 267.526C1556.14 267.526 1464.54 267.526 1373.87 267.526C1281.87 267.526 1189.87 267.526 1099.21 267.526C1007.61 267.526 916.539 267.526 824.539 267.526C733.339 267.526 641.873 267.526 549.873 267.526C459.073 267.526 367.206 267.526 276.539 267.526C184.673 267.526 93.8725 267.526 47.2058 267.526H0V143.5Z" fill="#55423D"/>
</svg>
